<svg id="Capa_1" enable-background="new 0 0 512 512" height="512" viewBox="0 0 512 512" width="512" xmlns="http://www.w3.org/2000/svg"><path d="m224.154 114.178c8.836 8.82 20.442 13.229 32.048 13.229s23.213-4.409 32.049-13.229l36.952-36.884c8.57-8.555 13.289-19.931 13.289-32.032s-4.719-23.478-13.289-32.032c-17.673-17.639-46.425-17.639-64.097 0l-4.904 4.894-4.904-4.894c-17.672-17.639-46.425-17.639-64.097 0-8.57 8.555-13.29 19.931-13.29 32.032s4.72 23.478 13.29 32.032zm-15.763-79.713c2.994-2.988 6.927-4.483 10.86-4.483s7.865 1.494 10.86 4.483l15.498 15.469c5.855 5.844 15.334 5.844 21.189 0l15.498-15.469c5.989-5.977 15.73-5.977 21.719 0 2.891 2.886 4.483 6.72 4.483 10.797s-1.592 7.911-4.483 10.797l-36.952 36.884c-5.988 5.976-15.73 5.977-21.719 0l-36.952-36.884c-2.891-2.886-4.483-6.72-4.483-10.797s1.591-7.911 4.482-10.797z"/><path d="m454.672 237.349c-12.479-20.967-30.095-40.989-42.016-51.53-29.116-25.747-54.664-24.836-67.305-22.001-6.759 1.516-13.006 4.268-18.386 8.033-19.578-13.306-42.953-19.825-70.762-19.825-28.438 0-52.238 6.817-72.083 20.737-5.168-3.445-11.09-5.977-17.469-7.407-12.639-2.836-38.191-3.746-67.303 21.999-11.924 10.543-29.541 30.566-42.018 51.533-18.711 31.443-22.29 57.932-10.637 78.731 13.631 24.323 34.944 30.969 49.773 32.784-2.158 11.055-3.447 23.131-3.447 37.206 0 25.979 6.063 48.544 18.019 67.068 10.617 16.449 25.763 29.552 45.017 38.947 33.757 16.471 73.323 18.376 100.148 18.376s66.391-1.905 100.148-18.376c19.254-9.395 34.4-22.499 45.016-38.946 11.958-18.522 18.02-41.087 18.02-67.069 0-14.734-1.412-27.277-3.757-38.756 14.825-1.832 36.076-8.501 49.678-32.773 11.653-20.797 8.074-47.285-10.636-78.731zm-342.919 63.941c-2.52 6.697-4.955 13.164-7.187 19.673-13.547-.695-24.196-4.607-31.707-18.01-7.513-13.41 1.425-33.897 10.246-48.72 10.762-18.086 26.262-35.693 36.11-44.4 19.125-16.914 33.818-16.785 40.871-15.202.174.039.347.08.519.122-18.473 22.46-29.493 50.773-38.635 78.195-3.514 10.536-6.92 19.585-10.217 28.342zm156.42 81.687c-4.106 4.095-9.029 6.955-11.971 6.955-2.943 0-7.865-2.859-11.969-6.954-4.121-4.111-6.998-9.088-6.998-12.105 0-2.585.796-3.356 2.581-4.105 3-1.26 8.054-1.822 16.387-1.822s13.387.562 16.388 1.822c1.784.75 2.58 1.52 2.58 4.105-.001 3.017-2.879 7.994-6.998 12.104zm107.993 55.428c-7.607 11.787-18.699 21.293-32.968 28.255-22.713 11.083-49.839 14.265-71.998 15.082v-64.979c8.048-3.389 14.383-8.782 18.155-12.544 5.906-5.891 15.812-18.056 15.812-33.346 0-14.379-7.837-26.254-20.964-31.767-7.039-2.956-15.151-4.161-28-4.161-12.85 0-20.962 1.206-28 4.161-13.127 5.512-20.964 17.388-20.964 31.767 0 15.289 9.906 27.455 15.812 33.346 3.77 3.761 10.105 9.155 18.154 12.544v64.978c-22.159-.817-49.284-3.999-71.998-15.082-14.268-6.962-25.36-16.468-32.968-28.255-8.775-13.594-13.224-30.685-13.224-50.796 0-31.081 7.052-49.818 16.814-75.754 3.393-9.014 6.902-18.336 10.598-29.416 8.688-26.06 19.068-52.792 36.047-71.78 17.468-19.534 39.625-28.632 69.729-28.632s52.261 9.098 69.729 28.632c16.982 18.99 27.361 45.721 36.047 71.78 3.677 11.027 7.186 20.35 10.598 29.417 9.761 25.934 16.813 44.671 16.813 75.753.001 20.115-4.448 37.205-13.224 50.797zm62.975-136.992c-7.535 13.446-18.226 17.34-31.833 18.018-2.091-6.009-4.348-12.003-6.678-18.195-3.294-8.752-6.699-17.803-10.195-28.287-9.325-27.973-20.604-56.874-39.759-79.546.406-.113.819-.217 1.238-.311 7.057-1.58 21.746-1.711 40.873 15.203 9.845 8.705 25.346 26.313 36.109 44.398 8.821 14.825 17.758 35.311 10.245 48.72z"/><path d="m215.925 255.536c-8.283 0-14.998 6.716-14.998 15.001v22.57c0 8.285 6.715 15.001 14.998 15.001s14.998-6.716 14.998-15.001v-22.57c0-8.285-6.715-15.001-14.998-15.001z"/><path d="m296.075 255.536c-8.283 0-14.998 6.716-14.998 15.001v22.57c0 8.285 6.715 15.001 14.998 15.001s14.998-6.716 14.998-15.001v-22.57c.001-8.285-6.714-15.001-14.998-15.001z"/></svg>